<svg width="20" height="20" viewBox="0 0 20 20" fill="none" xmlns="http://www.w3.org/2000/svg">
<path d="M8.07034 8.92189C8.07034 8.92189 9.96267 8.78323 9.96267 6.59293C9.96267 4.40248 8.41451 3.3335 6.45343 3.3335H0.000274658V15.5741H6.45343C6.45343 15.5741 10.3928 15.6969 10.3928 11.9612C10.3928 11.9612 10.5646 8.92189 8.07034 8.92189V8.92189ZM5.98893 5.50912H6.45343C6.45343 5.50912 7.3306 5.50912 7.3306 6.78269C7.3306 8.05612 6.81473 8.24074 6.22959 8.24074H2.84362V5.50912H5.98893V5.50912ZM6.27107 13.3985H2.84362V10.1274H6.45343C6.45343 10.1274 7.76081 10.1105 7.76081 11.8084C7.76081 13.2401 6.78432 13.3877 6.27107 13.3985V13.3985ZM15.6467 6.44786C10.8776 6.44786 10.8819 11.151 10.8819 11.151C10.8819 11.151 10.5547 15.8301 15.6467 15.8301C15.6467 15.8301 19.8901 16.0694 19.8901 12.5751H17.7078C17.7078 12.5751 17.7806 13.891 15.7195 13.891C15.7195 13.891 13.5369 14.0354 13.5369 11.7614H19.9629C19.9629 11.7614 20.666 6.44786 15.6467 6.44786ZM13.5129 10.1274C13.5129 10.1274 13.7794 8.2407 15.6952 8.2407C17.6107 8.2407 17.5867 10.1274 17.5867 10.1274H13.5129ZM18.095 5.56196H12.9786V4.05462H18.095V5.56196Z" fill="#4A60A1"/>
</svg>
